<?xml version="1.0" encoding="UTF-8" standalone="no"?>
<svg width="48px" height="48px" viewBox="0 0 48 48" version="1.1" xmlns="http://www.w3.org/2000/svg" xmlns:xlink="http://www.w3.org/1999/xlink" xmlns:sketch="http://www.bohemiancoding.com/sketch/ns">
    <!-- Generator: Sketch Beta 3.3.2 (12041) - http://www.bohemiancoding.com/sketch -->
    <title>favicon</title>
    <desc>Created with Sketch Beta.</desc>
    <defs></defs>
    <g id="Page-1" stroke="none" stroke-width="1" fill="none" fill-rule="evenodd" sketch:type="MSPage">
        <g id="873-magic-wand-toolbar-selected@2x.png" sketch:type="MSLayerGroup" fill="#000000">
            <g id="_x38_73-magic-wand-toolbar-selected_x40_2x.png" sketch:type="MSShapeGroup">
                <path d="M3.99927273,19.272 L6.54545455,18.5454545 L3.99927273,17.8178182 L3.27272727,15.2727273 L2.54509091,17.8178182 L0,18.5454545 L2.54509091,19.272 L3.27272727,21.8181818 L3.99927273,19.272 L3.99927273,19.272 Z M14.1818182,10.9090909 L15.3927273,6.66654545 L19.6363636,5.45454545 L15.3927273,4.24254545 L14.1818182,0 L12.9698182,4.24254545 L8.72727273,5.45454545 L12.9698182,6.66654545 L14.1818182,10.9090909 L14.1818182,10.9090909 Z M27.2727273,15.2727273 L27.9992727,12.7265455 L30.5454545,12 L27.9992727,11.2723636 L27.2727273,8.72727273 L26.5450909,11.2723636 L24,12 L26.5450909,12.7265455 L27.2727273,15.2727273 L27.2727273,15.2727273 Z M40.3636364,15.2727273 L42.06,9.33381818 L48,7.63636364 L42.0610909,5.93890909 L40.3636364,0 L38.6661818,5.93890909 L32.7272727,7.63636364 L38.6661818,9.33381818 L40.3636364,15.2727273 L40.3636364,15.2727273 Z M42.5454545,17.4545455 L41.3334545,21.6970909 L37.0909091,22.9090909 L41.3334545,24.1210909 L42.5454545,28.3636364 L43.7563636,24.1210909 L48,22.9090909 L43.7563636,21.6970909 L42.5454545,17.4545455 L42.5454545,17.4545455 Z M47.7065455,41.6629091 L23.7872727,17.7436364 C23.7741818,17.7294545 23.7698182,17.7087273 23.7578182,17.6945455 C23.088,17.0247273 21.1887273,17.8396364 19.5130909,19.5130909 C17.8396364,21.1876364 17.0247273,23.0869091 17.6945455,23.7578182 C17.7087273,23.772 17.7294545,23.7752727 17.7447273,23.7872727 L41.6650909,47.7076364 C41.6770909,47.7229091 41.6814545,47.7436364 41.6945455,47.7578182 C42.3632727,48.4265455 44.2636364,47.6127273 45.9381818,45.9381818 C47.6127273,44.2647273 48.4265455,42.3654545 47.7578182,41.6945455 C47.7436364,41.6803636 47.7218182,41.676 47.7065455,41.6629091 L47.7065455,41.6629091 Z M27.6207273,27.6218182 C26.8145455,28.4269091 26.3814545,29.2898182 26.6236364,29.5810909 L25.6581818,28.6145455 L25.6494545,28.6232727 L20.1949091,23.1687273 L20.2189091,23.1436364 C20.1981818,23.1349091 20.1665455,23.1414545 20.1512727,23.1272727 C19.8774545,22.8534545 20.3214545,21.9665455 21.1429091,21.1450909 C21.9632727,20.3236364 22.8501818,19.8807273 23.124,20.1545455 C23.1392727,20.1687273 23.1327273,20.2014545 23.1414545,20.2210909 L23.1676364,20.196 L28.6221818,25.6505455 L28.6145455,25.6581818 L29.5832727,26.6269091 C29.2952727,26.3792727 28.4290909,26.8134545 27.6207273,27.6218182 L27.6207273,27.6218182 Z M20.7272727,41.4545455 L19.9996364,43.9996364 L17.4545455,44.7272727 L19.9996364,45.4538182 L20.7272727,48 L21.4538182,45.4538182 L24,44.7272727 L21.4538182,43.9996364 L20.7272727,41.4545455 L20.7272727,41.4545455 Z M9.81818182,29.4545455 L8.36290909,34.5447273 L3.27272727,36 L8.36290909,37.4541818 L9.81818182,42.5454545 L11.2723636,37.4541818 L16.3636364,36 L11.2723636,34.5447273 L9.81818182,29.4545455 L9.81818182,29.4545455 Z" id="Shape"></path>
            </g>
        </g>
    </g>
</svg>